<svg width="125" height="42" viewBox="0 0 125 42" fill="none" xmlns="http://www.w3.org/2000/svg">
<path d="M102.549 2.28232e-05C97.4241 2.28232e-05 92.7225 1.76014 89.0334 4.69366C85.2153 1.65097 80.4407 -0.00709524 75.5174 2.28232e-05C70.3921 2.28232e-05 65.6905 1.76014 62.0015 4.69366C58.1834 1.65097 53.4087 -0.00709524 48.4855 2.28232e-05C43.3601 2.28232e-05 38.6585 1.76014 34.9695 4.69366C31.8219 2.19323 28.0151 0.616979 23.99 0.147511C19.9649 -0.321957 15.8863 0.334575 12.2267 2.04105C8.56713 3.74752 5.47634 6.43409 3.31241 9.78951C1.14849 13.1449 0 17.0319 0 21C0 24.9681 1.14849 28.8551 3.31241 32.2105C5.47634 35.5659 8.56713 38.2525 12.2267 39.959C15.8863 41.6654 19.9649 42.322 23.99 41.8525C28.0151 41.383 31.8219 39.8068 34.9695 37.3064C38.6585 40.2399 43.3601 42 48.4855 42C53.6108 42 58.3125 40.2399 62.0015 37.3064C65.6905 40.2399 70.3921 42 75.5174 42C80.6428 42 85.3444 40.2399 89.0334 37.3064C91.6998 39.4245 94.8466 40.8851 98.2093 41.5654C101.572 42.2457 105.053 42.1259 108.358 41.2159C111.664 40.3059 114.698 38.6324 117.206 36.3361C119.713 34.0397 121.621 31.1876 122.769 28.0195C123.917 24.8514 124.271 21.4599 123.802 18.13C123.332 14.8 122.053 11.6291 120.072 8.88354C118.091 6.13803 115.465 3.89821 112.416 2.35236C109.367 0.806509 105.983 -0.000204933 102.549 2.28232e-05ZM89.0334 30.4379C87.0201 27.6859 85.9395 24.3849 85.9438 21C85.9438 17.4798 87.0908 14.2226 89.0334 11.5622C90.9761 14.2226 92.1231 17.4798 92.1231 21C92.1231 24.5202 90.9761 27.7775 89.0334 30.4379ZM62.0015 30.4379C59.9881 27.6859 58.9075 24.3849 58.9118 21C58.9118 17.4798 60.0588 14.2226 62.0015 11.5622C63.9441 14.2226 65.0911 17.4798 65.0911 21C65.0911 24.5202 63.9441 27.7775 62.0015 30.4379ZM34.9695 30.4379C32.9561 27.6859 31.8755 24.3849 31.8798 21C31.8798 17.4798 33.0268 14.2226 34.9695 11.5622C36.9121 14.2226 38.0591 17.4798 38.0591 21C38.0591 24.5202 36.9121 27.7775 34.9695 30.4379ZM4.84779 21C4.84901 17.9668 5.71713 14.9944 7.35399 12.4189C8.99086 9.8435 11.3312 7.76775 14.1103 6.42643C16.8894 5.0851 19.9964 4.5317 23.08 4.82881C26.1636 5.12592 29.1008 6.26169 31.5595 8.10768C28.6219 11.7895 27.0285 16.3283 27.0335 21C27.0335 25.8605 28.7281 30.3367 31.5595 33.8923C29.1008 35.7383 26.1636 36.8741 23.08 37.1712C19.9964 37.4683 16.8894 36.9149 14.1103 35.5736C11.3312 34.2323 8.99086 32.1565 7.35399 29.5811C5.71713 27.0056 4.84901 24.0332 4.84779 21ZM38.3795 33.8923C41.317 30.2105 42.9104 25.6717 42.9055 21C42.9055 16.1395 41.2108 11.6633 38.3795 8.10768C41.2762 5.9246 44.8298 4.74191 48.4855 4.74424C52.2881 4.74424 55.7911 5.99857 58.5915 8.10768C55.6524 11.7887 54.0589 16.328 54.0654 21C54.0654 25.8605 55.7601 30.3367 58.5915 33.8923C55.6947 36.0754 52.1411 37.2581 48.4855 37.2558C44.8293 37.2608 41.2749 36.0778 38.3795 33.8923ZM65.4115 33.8923C68.3505 30.2113 69.944 25.672 69.9375 21C69.9375 16.1395 68.2428 11.6633 65.4115 8.10262C68.2118 5.99857 71.7148 4.73918 75.5174 4.73918C79.3201 4.73918 82.8231 5.99351 85.6235 8.10262C82.6844 11.7837 81.0909 16.3229 81.0975 20.9949C81.0975 25.8555 82.7921 30.3316 85.6235 33.8873C82.7267 36.0704 79.1731 37.253 75.5174 37.2507C71.8615 37.2595 68.3064 36.078 65.4115 33.8923ZM102.549 37.2558C98.8933 37.2608 95.3388 36.0778 92.4434 33.8923C95.3803 30.2102 96.9736 25.6716 96.9694 21C96.9694 16.1395 95.2748 11.6633 92.4434 8.10768C94.5369 6.53379 96.9834 5.4711 99.5802 5.00774C102.177 4.54438 104.849 4.69369 107.375 5.4433C109.901 6.19291 112.208 7.52121 114.105 9.31806C116.002 11.1149 117.434 13.3286 118.283 15.7754C119.131 18.2223 119.371 20.8319 118.984 23.3878C118.596 25.9437 117.591 28.3724 116.053 30.4723C114.515 32.5722 112.488 34.283 110.139 35.4627C107.791 36.6424 105.189 37.2571 102.549 37.2558Z" fill="#BDBDBD"/>
</svg>
