<svg width="82" height="82" viewBox="0 0 82 82" fill="none" xmlns="http://www.w3.org/2000/svg">
<path fill-rule="evenodd" clip-rule="evenodd" d="M82 41C82 46.3842 80.9395 51.7157 78.8791 56.69C76.8186 61.6644 73.7986 66.1842 69.9914 69.9914C66.1842 73.7986 61.6644 76.8186 56.69 78.8791C51.7157 80.9395 46.3842 82 41 82C35.6158 82 30.2843 80.9395 25.31 78.8791C20.3356 76.8186 15.8158 73.7986 12.0086 69.9914C8.20142 66.1842 5.18138 61.6644 3.12094 56.69C1.0605 51.7157 -8.02308e-08 46.3842 0 41C1.62033e-07 30.1261 4.31963 19.6976 12.0086 12.0086C19.6976 4.31963 30.1261 0 41 0C51.8739 0 62.3024 4.31963 69.9914 12.0086C77.6804 19.6976 82 30.1261 82 41ZM9.11111 41C9.11111 49.4575 12.4708 57.5685 18.4511 63.5488C24.4315 69.5292 32.5425 72.8889 41 72.8889V41H72.8889C72.8889 32.5425 69.5292 24.4315 63.5488 18.4511C57.5685 12.4708 49.4575 9.11111 41 9.11111V41H9.11111Z" fill="#BDBDBD"/>
</svg>
