<svg width="82" height="82" viewBox="0 0 82 82" fill="none" xmlns="http://www.w3.org/2000/svg">
<path d="M41 0C18.3578 0 0 18.3578 0 41C0 63.6423 18.3578 82 41 82C63.6423 82 82 63.6423 82 41C82 18.3578 63.6423 0 41 0ZM41 2.665C62.1697 2.665 79.3316 19.8269 79.3316 41C79.3316 62.1697 62.1731 79.3316 41 79.3316C19.8269 79.3316 2.66842 62.1697 2.66842 41C2.66842 19.8303 19.8303 2.665 41 2.665ZM38.6835 4.8175C37.556 4.86533 36.4285 4.961 35.2942 5.084L34.9286 15.1427C35.7331 15.0065 36.5422 14.8994 37.3544 14.8215L37.5936 8.02917L37.5492 7.56108L37.6961 8.00525L39.9647 13.0927H42.0353L44.3039 8.00867L44.4406 7.56108L44.4064 8.02917L44.6456 14.8215C45.4383 14.8967 46.2617 15.006 47.0714 15.1427L46.699 5.084C45.5725 4.95706 44.4421 4.86818 43.3097 4.8175L41.0786 10.3696L41 10.7796L40.9214 10.3696L38.6835 4.8175ZM61.5615 11.0495L56.2896 19.3452C56.9558 19.8577 57.8339 20.6128 58.3977 21.1287L63.3621 18.5525L63.6764 18.3168L63.4407 18.6379L60.8713 23.6023C61.4283 24.2003 62.2312 25.1672 62.6822 25.7548L70.9847 20.4795C70.4755 19.8208 69.9515 19.1738 69.413 18.5388L64.1548 22.0033L63.796 22.3177L64.0625 21.9247L66.3858 17.2917L64.7458 15.6517L60.1128 17.9751L59.7199 18.2416L60.0308 17.8794L63.509 12.6212C62.894 12.1018 62.3098 11.6269 61.5615 11.0495ZM18.7917 12.9321C17.5617 13.0585 16.6118 13.899 14.0322 16.7758C13.1378 17.7895 12.2752 18.831 11.4458 19.8987L18.532 26.6193C20.8792 24.0226 21.8325 23.0591 23.6843 21.1082C24.9929 19.7244 25.7343 18.1357 24.4223 16.6084C23.7117 15.7816 22.5158 15.6005 21.5182 16.0105L21.4225 16.0447L21.4567 15.9558C21.5799 15.5025 21.5669 15.0229 21.4192 14.5769C21.2715 14.1309 20.9958 13.7383 20.6264 13.448C20.3696 13.2456 20.0753 13.096 19.7604 13.008C19.4454 12.9201 19.1162 12.892 18.7917 12.9321ZM18.8122 15.0333C19.2768 14.9069 19.7586 15.2383 19.8645 15.7167C19.9738 16.195 19.6732 16.646 19.3383 17.0218C18.5867 17.876 15.8158 20.7733 15.8158 20.7733L14.4423 19.4648C15.867 17.7223 17.384 16.1369 18.0708 15.5083C18.2768 15.2935 18.5309 15.1307 18.8122 15.0333ZM41 16.6836C34.9812 16.6809 29.1755 18.9115 24.7068 22.9434C20.2381 26.9753 17.4242 32.5219 16.81 38.5093V38.5161C16.4239 42.3147 16.9372 46.1509 18.3082 49.7144C19.6793 53.278 21.8697 56.4689 24.7024 59.0291C27.535 61.5893 30.9304 63.4471 34.614 64.452C38.2976 65.457 42.1659 65.5811 45.9063 64.8142C51.389 63.6872 56.3145 60.7019 59.8504 56.3629C63.3863 52.0239 65.3159 46.5973 65.313 41C65.3067 34.5541 62.743 28.374 58.1847 23.8163C53.6264 19.2587 47.446 16.6958 41 16.6904V16.6836ZM22.0819 17.5104C22.2425 17.5104 22.4099 17.5548 22.5603 17.6573C22.8609 17.8589 22.9976 18.204 22.9224 18.5457C22.8336 18.9523 22.4953 19.3349 22.222 19.6322L18.6516 23.4588L17.2166 22.0922C17.2166 22.0922 19.9055 19.2495 20.787 18.3373C21.1355 17.9751 21.361 17.7564 21.6002 17.6368C21.7483 17.5599 21.9151 17.5167 22.0819 17.5104ZM41 19.8782C43.7746 19.875 46.5227 20.4192 49.0867 21.4796C51.6507 22.5399 53.9804 24.0956 55.9424 26.0576C57.9044 28.0196 59.4601 30.3493 60.5204 32.9133C61.5808 35.4773 62.125 38.2254 62.1218 41H41V62.1218C38.2254 62.125 35.4773 61.5808 32.9133 60.5204C30.3493 59.4601 28.0196 57.9044 26.0576 55.9424C24.0956 53.9804 22.5399 51.6507 21.4796 49.0867C20.4192 46.5227 19.875 43.7746 19.8782 41H41V19.8782Z" fill="#BDBDBD"/>
</svg>
