<svg width="348" height="348" viewBox="0 0 348 348" fill="none" xmlns="http://www.w3.org/2000/svg">
<g clip-path="url(#clip0_201_27)">
<path d="M347.964 180.419L345.975 199.389C345.912 199.99 345.772 200.556 345.569 201.074C344.022 205.082 338.777 206.593 335.263 203.565C333.638 202.166 332.014 200.781 330.396 199.424C252.447 133.707 183.351 109.833 174.872 107.061C174.306 106.876 173.699 106.874 173.133 107.059C164.504 109.879 92.6757 134.691 12.7371 203.564C8.7603 206.991 2.5772 204.606 2.02393 199.388L0.0351723 180.419C-0.13271 178.789 0.294133 177.194 1.27424 175.886C13.6071 159.541 99.4237 48.3644 171.682 23.4981C173.183 22.9815 174.809 22.9795 176.31 23.496C235.854 44.0028 304.707 123.22 333.932 159.527C340.143 167.242 344.561 173.02 346.725 175.887C347.705 177.195 348.132 178.79 347.964 180.419Z" fill="#CCCCCC"/>
<path d="M345.976 199.389L345.57 201.074C344.022 205.082 338.778 206.593 335.263 203.565C255.325 134.692 183.496 109.88 174.868 107.059C174.304 106.875 173.697 106.875 173.134 107.059C164.506 109.88 92.6772 134.692 12.7386 203.565C8.76176 206.992 2.57866 204.607 2.02539 199.389C2.02539 199.389 124.987 86.3787 174.001 86.3787C223.015 86.3787 345.976 199.389 345.976 199.389Z" fill="#A6A6A6"/>
<path d="M347.964 180.419L345.975 199.389C345.912 199.99 345.772 200.556 345.569 201.074C344.022 205.082 338.777 206.593 335.263 203.565C333.638 202.166 332.014 200.781 330.396 199.424C333.218 185.994 333.911 170.837 333.932 159.527C340.143 167.242 344.561 173.02 346.724 175.887C347.705 177.195 348.132 178.79 347.964 180.419Z" fill="#8C8C8C"/>
<path d="M183.801 177.675H166.301L166.298 177.673V160.192L166.301 160.189H183.801L183.803 160.192V177.673L183.801 177.675Z" fill="#FCEE21"/>
<path d="M106.666 97.7436C105.889 98.1357 106.383 99.3102 107.208 99.0289C121.332 94.2167 148.283 86.3785 174 86.3785C199.634 86.3785 226.048 94.1657 239.933 98.982C240.756 99.2674 241.26 98.0977 240.485 97.7007C225.018 89.7688 193.88 75.1875 174 75.1875C154.084 75.1875 122.373 89.8218 106.666 97.7436Z" fill="#8C8C8C"/>
<path d="M347.964 300.143L345.975 319.112C345.912 319.713 345.772 320.28 345.569 320.798C344.022 324.806 338.777 326.317 335.263 323.288C333.638 321.889 332.014 320.504 330.396 319.147C252.447 253.43 183.351 229.556 174.872 226.784C174.306 226.599 173.699 226.597 173.133 226.782C164.504 229.603 92.6758 254.415 12.7373 323.287C8.76041 326.714 2.5773 324.329 2.02404 319.111L0.0366371 300.143C-0.131245 298.513 0.295598 296.918 1.27571 295.61C13.6073 279.265 99.4238 168.088 171.683 143.221C173.183 142.704 174.809 142.702 176.311 143.219C235.854 163.725 304.707 242.943 333.932 279.25C340.143 286.965 344.561 292.742 346.725 295.61C347.705 296.918 348.132 298.513 347.964 300.143Z" fill="#CCCCCC"/>
<path d="M345.976 319.112L345.57 320.798C344.022 324.806 338.778 326.317 335.263 323.288C255.325 254.415 183.496 229.603 174.868 226.783C174.304 226.598 173.697 226.598 173.134 226.783C164.506 229.603 92.6772 254.415 12.7386 323.288C8.76176 326.715 2.57866 324.33 2.02539 319.112C2.02539 319.112 124.987 206.102 174.001 206.102C223.015 206.102 345.976 319.112 345.976 319.112Z" fill="#A6A6A6"/>
<path d="M347.964 300.143L345.976 319.112C345.912 319.714 345.772 320.28 345.57 320.798C344.022 324.806 338.778 326.317 335.263 323.288C333.639 321.889 332.014 320.504 330.396 319.147C333.219 305.717 333.912 290.56 333.932 279.25C340.143 286.966 344.561 292.743 346.725 295.611C347.705 296.918 348.133 298.513 347.964 300.143Z" fill="#8C8C8C"/>
<path d="M106.666 217.467C105.889 217.859 106.383 219.034 107.208 218.752C121.332 213.94 148.283 206.102 174 206.102C199.634 206.102 226.048 213.889 239.933 218.705C240.756 218.991 241.26 217.821 240.485 217.424C225.018 209.492 193.88 194.911 174 194.911C154.084 194.91 122.373 209.545 106.666 217.467Z" fill="#8C8C8C"/>
</g>
<defs>
<clipPath id="clip0_201_27">
<rect width="348" height="348" fill="white"/>
</clipPath>
</defs>
</svg>
