<svg width="55" height="52" viewBox="0 0 55 52" fill="none" xmlns="http://www.w3.org/2000/svg">
<path d="M0 9C0 7.65257 0.227354 6.28473 0.649797 4.96529C1.73069 1.58928 7.45517 3.5 11 3.5C13.188 3.5 15.2865 4.36919 16.8336 5.91637C18.3808 7.46354 19.25 9.56196 19.25 11.75C19.25 13.5768 19.647 15.5224 21.0607 16.6794C21.2397 16.8259 21.4185 16.9727 21.597 17.1198C23.2806 18.5073 23.3754 21.0391 21.8327 22.5818C20.2897 24.1248 17.7572 24.0295 16.3695 22.3455C16.2227 22.1674 16.0762 21.989 15.9299 21.8103C14.7741 20.3983 12.8248 19.9924 11 20C4.9225 20 0 15.0775 0 9ZM35.5717 29.9652C34.3962 28.782 34.3822 26.8678 35.5615 25.6885C36.4815 24.7685 37.882 24.5851 39.1262 24.9656C40.2567 25.3114 41.4351 25.4925 42.625 25.5C45.9071 25.5 49.0547 24.1962 51.3754 21.8754C53.6962 19.5547 55 16.4071 55 13.125C55 10.3 51.5861 9.66393 49.5885 11.6615L46.75 14.5C45.2312 16.0188 42.7688 16.0188 41.25 14.5C39.7312 12.9812 39.7312 10.5188 41.25 9L44.0885 6.16152C46.094 4.156 45.4612 0.76789 42.625 0.75C39.3429 0.75 36.1953 2.05379 33.8746 4.37455C31.5538 6.69532 30.25 9.84295 30.25 13.125C30.25 16.5485 29.9708 20.2792 27.55 22.7L5.49999 44.75C3.98121 46.2688 3.98122 48.7312 5.5 50.25C7.01878 51.7688 9.48122 51.7688 11 50.25L19.9195 41.3305C23.8603 37.3897 30.2448 37.4521 34.3433 41.2285C37.3154 43.967 40.3754 46.6098 43.5188 49.1527L45.1669 50.4816C46.4583 51.5229 48.327 51.423 49.5 50.25C50.673 49.077 50.7729 47.2083 49.7316 45.9169L48.4027 44.2688C44.3712 39.2854 40.0886 34.5114 35.5717 29.9652Z" fill="white"/>
</svg>
