<svg width="72" height="55" viewBox="0 0 72 55" fill="none" xmlns="http://www.w3.org/2000/svg">
<path d="M45.8182 0C52.762 0 59.4215 2.89731 64.3315 8.05456C69.2416 13.2118 72 20.2065 72 27.5C72 34.7935 69.2416 41.7882 64.3315 46.9454C59.4215 52.1027 52.762 55 45.8182 55C38.8743 55 32.2149 52.1027 27.3048 46.9454C22.3948 41.7882 19.6364 34.7935 19.6364 27.5C19.6364 20.2065 22.3948 13.2118 27.3048 8.05456C32.2149 2.89731 38.8743 0 45.8182 0ZM45.8182 6.875C40.6103 6.875 35.6157 9.04799 31.9332 12.9159C28.2506 16.7839 26.1818 22.0299 26.1818 27.5C26.1818 32.9701 28.2506 38.2161 31.9332 42.0841C35.6157 45.952 40.6103 48.125 45.8182 48.125C51.0261 48.125 56.0207 45.952 59.7032 42.0841C63.3857 38.2161 65.4545 32.9701 65.4545 27.5C65.4545 22.0299 63.3857 16.7839 59.7032 12.9159C56.0207 9.04799 51.0261 6.875 45.8182 6.875ZM42.5455 16.2045C42.5455 14.8489 43.6444 13.75 45 13.75C46.3556 13.75 47.4545 14.8489 47.4545 16.2045V23.4726C47.4545 25.5725 48.2621 27.592 49.7101 29.1129L53.4306 33.0207C54.3543 33.9909 54.3543 35.5153 53.4306 36.4856C52.4404 37.5256 50.7814 37.5256 49.7912 36.4856L45.0452 31.5006C43.4405 29.8151 42.5455 27.577 42.5455 25.2497V16.2045ZM3.27273 48.125C2.40475 48.125 1.57231 47.7628 0.958559 47.1182C0.344804 46.4735 0 45.5992 0 44.6875C0 43.7758 0.344804 42.9015 0.958559 42.2568C1.57231 41.6122 2.40475 41.25 3.27273 41.25H13.782C15.0082 41.25 16.1064 42.0015 16.6456 43.1028C17.7281 45.3135 16.2377 48.125 13.7763 48.125H3.27273ZM6.54545 30.9375C5.67747 30.9375 4.84504 30.5753 4.23129 29.9307C3.61753 29.286 3.27273 28.4117 3.27273 27.5C3.27273 26.5883 3.61753 25.714 4.23129 25.0693C4.84504 24.4247 5.67747 24.0625 6.54545 24.0625H9.81315C11.6867 24.0625 13.18 25.6286 13.0909 27.5C13.18 29.3714 11.6867 30.9375 9.81315 30.9375H6.54545ZM9.81818 13.75C8.9502 13.75 8.11777 13.3878 7.50401 12.7432C6.89026 12.0985 6.54545 11.2242 6.54545 10.3125C6.54545 9.40082 6.89026 8.52648 7.50401 7.88182C8.11777 7.23716 8.9502 6.875 9.81818 6.875H13.7763C16.2377 6.875 17.7281 9.68654 16.6456 11.8972C16.1064 12.9985 15.0082 13.75 13.782 13.75H9.81818Z" fill="white"/>
</svg>
