<svg width="41" height="40" viewBox="0 0 41 40" fill="none" xmlns="http://www.w3.org/2000/svg">
<path d="M11.89 0H29.11C35.67 0 41 5.2 41 11.6V28.4C41 31.4765 39.7473 34.427 37.5175 36.6024C35.2877 38.7779 32.2634 40 29.11 40H11.89C5.33 40 0 34.8 0 28.4V11.6C0 8.52349 1.25269 5.57298 3.4825 3.39756C5.71231 1.22214 8.73658 0 11.89 0ZM11.48 4C9.5227 4 7.64557 4.75857 6.26155 6.10883C4.87753 7.45909 4.1 9.29044 4.1 11.2V28.8C4.1 32.78 7.4005 36 11.48 36H29.52C31.4773 36 33.3544 35.2414 34.7384 33.8912C36.1225 32.5409 36.9 30.7096 36.9 28.8V11.2C36.9 7.22 33.5995 4 29.52 4H11.48ZM31.2625 7C31.9421 7 32.5939 7.26339 33.0745 7.73223C33.555 8.20107 33.825 8.83696 33.825 9.5C33.825 10.163 33.555 10.7989 33.0745 11.2678C32.5939 11.7366 31.9421 12 31.2625 12C30.5829 12 29.9311 11.7366 29.4505 11.2678C28.97 10.7989 28.7 10.163 28.7 9.5C28.7 8.83696 28.97 8.20107 29.4505 7.73223C29.9311 7.26339 30.5829 7 31.2625 7ZM20.5 10C23.2185 10 25.8256 11.0536 27.7478 12.9289C29.6701 14.8043 30.75 17.3478 30.75 20C30.75 22.6522 29.6701 25.1957 27.7478 27.0711C25.8256 28.9464 23.2185 30 20.5 30C17.7815 30 15.1744 28.9464 13.2522 27.0711C11.3299 25.1957 10.25 22.6522 10.25 20C10.25 17.3478 11.3299 14.8043 13.2522 12.9289C15.1744 11.0536 17.7815 10 20.5 10ZM20.5 14C18.8689 14 17.3046 14.6321 16.1513 15.7574C14.9979 16.8826 14.35 18.4087 14.35 20C14.35 21.5913 14.9979 23.1174 16.1513 24.2426C17.3046 25.3679 18.8689 26 20.5 26C22.1311 26 23.6954 25.3679 24.8487 24.2426C26.0021 23.1174 26.65 21.5913 26.65 20C26.65 18.4087 26.0021 16.8826 24.8487 15.7574C23.6954 14.6321 22.1311 14 20.5 14Z" fill="white"/>
</svg>
