<svg width="82" height="82" viewBox="0 0 82 82" fill="none" xmlns="http://www.w3.org/2000/svg">
<path d="M41 0C63.6286 0 82 18.3714 82 41C82 63.6286 63.6286 82 41 82C18.3714 82 0 63.6286 0 41C0 18.3714 18.3714 0 41 0ZM11.0871 59.9249C14.2785 64.9711 18.695 69.1277 23.9252 72.0078C29.1554 74.8878 35.0293 76.3977 41 76.3967C53.5768 76.3967 64.6331 69.823 70.9129 59.9249L41 48.5269L11.0871 59.9249ZM47.519 37.2348L72.3479 57.4444C75.0152 52.3739 76.405 46.7292 76.3967 41C76.3967 21.9452 61.3053 6.38575 42.435 5.63067L47.519 37.2348ZM39.565 5.63067C20.6948 6.38575 5.60333 21.9452 5.60333 41C5.60333 46.9347 7.06567 52.5278 9.65208 57.4444L34.481 37.2348L39.565 5.63067Z" fill="#BDBDBD"/>
</svg>
