<svg width="106" height="82" viewBox="0 0 106 82" fill="none" xmlns="http://www.w3.org/2000/svg">
<path d="M105.077 44.9318C104.53 44.8965 93.9696 44.2267 93.9077 44.2179C94.0025 43.0893 94.0511 41.9573 94.0535 40.8247C93.9033 18.1301 75.3492 -0.148914 52.6037 0.000914531C43.3639 0.060942 34.4129 3.22006 27.1903 8.97015C19.9678 14.7202 14.8935 22.7271 12.7836 31.7028H3.69869C3.45557 31.7028 3.21569 31.7584 2.99747 31.8654C2.77926 31.9723 2.58854 32.1278 2.43996 32.3198L0.16983 35.5367C-0.24533 36.0302 0.152164 36.8411 0.805821 36.8146C1.44181 36.8499 11.7811 37.4844 11.9798 37.5021C11.8834 38.6321 11.8333 39.7656 11.8297 40.8997C11.8278 51 15.5542 60.7473 22.2975 68.2805C29.0408 75.8137 38.3286 80.605 48.3876 81.7398C58.4465 82.8745 68.572 80.2731 76.8308 74.4322C85.0895 68.5914 90.903 59.9203 93.1613 50.0744H102.242C102.485 50.0755 102.725 50.0203 102.944 49.9133C103.162 49.8063 103.353 49.6503 103.501 49.4575L105.837 46.2494C106.265 45.6942 105.793 44.7996 105.077 44.9318ZM52.8599 4.53542C62.5156 4.54475 71.7734 8.37544 78.6019 15.187C85.4303 21.9986 89.2719 31.2346 89.2836 40.8688C89.2836 41.9 89.2261 42.9179 89.1511 43.9271L58.703 42.0013L71.9175 32.9411C72.4652 32.593 72.1869 31.672 71.5332 31.694H17.6286C19.6705 23.9205 24.2343 17.0401 30.6078 12.127C36.9813 7.2139 44.8058 4.54447 52.8599 4.53542ZM52.8599 77.211C43.2045 77.1982 33.9483 73.3649 27.1217 66.5519C20.2952 59.7389 16.4555 50.5026 16.445 40.8688C16.445 39.8376 16.445 38.8197 16.5819 37.8105L47.0344 39.7054L33.8464 48.7612C33.2987 49.1226 33.5814 50.0392 34.2439 50.0171H88.1043C86.0658 57.7979 81.5021 64.6861 75.1259 69.6058C68.7498 74.5255 60.9201 77.1998 52.8599 77.211Z" fill="#BDBDBD"/>
</svg>
