<svg width="491" height="378" viewBox="0 0 491 378" fill="none" xmlns="http://www.w3.org/2000/svg">
<path d="M486.726 207.125C484.189 206.962 435.274 203.874 434.988 203.834C435.427 198.631 435.652 193.413 435.663 188.192C434.967 83.5755 349.023 -0.686456 243.664 0.00421577C200.865 0.280928 159.403 14.8437 125.948 41.3502C92.4922 67.8567 68.9878 104.766 59.2148 146.142H17.1326C16.0065 146.142 14.8953 146.398 13.8845 146.892C12.8737 147.385 11.9903 148.101 11.3021 148.986L0.786666 163.815C-1.13639 166.091 0.704834 169.828 3.73262 169.706C6.67858 169.869 54.5708 172.794 55.4914 172.875C55.0448 178.084 54.8128 183.31 54.7958 188.537C54.7871 235.098 72.0484 280.03 103.284 314.756C134.519 349.483 177.541 371.57 224.135 376.8C270.729 382.031 317.631 370.039 355.886 343.114C394.141 316.19 421.07 276.218 431.53 230.831H473.592C474.719 230.836 475.832 230.581 476.843 230.088C477.855 229.595 478.738 228.876 479.423 227.987L490.245 213.198C492.229 210.639 490.04 206.515 486.726 207.125ZM244.851 20.9072C289.577 20.9502 332.46 38.6087 364.09 70.0083C395.72 101.408 413.514 143.984 413.568 188.395C413.568 193.149 413.302 197.841 412.954 202.493L271.917 193.616L333.127 151.851C335.664 150.246 334.375 146 331.347 146.102H81.6572C91.1151 110.267 112.255 78.5508 141.778 55.9026C171.3 33.2543 207.544 20.9489 244.851 20.9072ZM244.851 355.924C200.126 355.865 157.251 338.194 125.63 306.788C94.0088 275.382 76.2232 232.805 76.1745 188.395C76.1745 183.642 76.1745 178.949 76.8087 174.297L217.867 183.032L156.779 224.777C154.242 226.443 155.552 230.668 158.62 230.567H408.106C398.663 266.434 377.524 298.187 347.989 320.866C318.454 343.545 282.187 355.872 244.851 355.924Z" fill="#BDBDBD"/>
</svg>
