<svg width="326" height="326" viewBox="0 0 326 326" fill="none" xmlns="http://www.w3.org/2000/svg">
<g clip-path="url(#clip0_202_3)">
<path d="M296.373 161.733L204.57 1.2798C204.119 0.490273 203.274 0 202.365 0H123.636C122.727 0 121.882 0.490273 121.43 1.2798L29.6276 161.733C29.1762 162.516 29.1762 163.484 29.6276 164.267L121.43 324.72C121.488 324.816 121.545 324.911 121.608 324.994C121.608 325 121.614 325 121.614 325C121.818 325.268 122.072 325.484 122.352 325.65C122.65 325.828 122.981 325.936 123.33 325.975C123.432 325.994 123.533 326 123.635 326H202.365C203.274 326 204.119 325.51 204.57 324.72L296.373 164.267C296.824 163.484 296.824 162.516 296.373 161.733ZM117.02 164.203C116.619 163.452 116.619 162.548 117.02 161.797L163 76.107L208.981 161.797C209.382 162.548 209.382 163.452 208.981 164.203L163 249.893L117.02 164.203Z" fill="#CCCCCC"/>
<path d="M202.365 0H187.485L280.744 163L187.485 326H202.365C203.276 326 204.117 325.512 204.571 324.72L296.373 164.266C296.822 163.482 296.822 162.518 296.373 161.734L204.571 1.28044C204.117 0.488363 203.276 0 202.365 0Z" fill="#8C8C8C"/>
<path d="M202.328 2.8143L195.928 14.7464L171.18 60.8703L163.001 76.107L117.02 161.797C116.613 162.548 116.613 163.452 117.02 164.203L163.001 249.893L154.821 265.13L129.235 312.82V312.826L123.763 323.02L122.352 325.65L122.275 325.784C122.072 325.663 121.9 325.497 121.767 325.306C121.741 325.261 121.716 325.223 121.69 325.179L121.43 324.72L29.6271 164.267C29.1757 163.484 29.1757 162.516 29.6271 161.733L121.43 1.2798C121.881 0.490273 122.726 0 123.635 0H200.649C202.092 0 203.014 1.54086 202.328 2.8143Z" fill="#CCCCCC"/>
<path d="M202.328 2.8143L195.928 14.7464L171.18 60.8703L163.001 76.107L117.02 161.797C116.613 162.548 116.613 163.452 117.02 164.203L163.001 249.893L154.821 265.13L129.235 312.82V312.826L123.763 323.02L122.352 325.65L122.275 325.784C122.072 325.663 121.9 325.497 121.767 325.306C121.741 325.261 121.716 325.223 121.69 325.179L121.43 324.72L29.6271 164.267C29.1757 163.484 29.1757 162.516 29.6271 161.733L121.43 1.2798C121.881 0.490273 122.726 0 123.635 0H200.649C202.092 0 203.014 1.54086 202.328 2.8143Z" fill="#E3E3E3"/>
<path d="M187.485 0L100.668 161.794C100.264 162.547 100.264 163.453 100.668 164.206L154.824 265.132L163.001 249.892L117.021 164.206C116.617 163.453 116.617 162.547 117.021 161.794L202.328 2.81493C203.011 1.54213 202.091 0 200.649 0H187.485Z" fill="#8C8C8C"/>
<path d="M225.333 164.203L138.514 326H123.07C122.784 326 122.511 325.917 122.275 325.784L122.352 325.65L123.763 323.02L129.235 312.826V312.82L154.821 265.13L163.001 249.893L208.981 164.203C209.382 163.452 209.382 162.548 208.981 161.797L163.001 76.107L171.18 60.8704L225.333 161.797C225.74 162.548 225.74 163.452 225.333 164.203Z" fill="#A6A6A6"/>
</g>
<defs>
<clipPath id="clip0_202_3">
<rect width="326" height="326" fill="white"/>
</clipPath>
</defs>
</svg>
