<svg width="50" height="55" viewBox="0 0 50 55" fill="none" xmlns="http://www.w3.org/2000/svg">
<path d="M22.9656 0.350985C24.0577 -0.057645 25.251 -0.110917 26.3752 0.198768L26.8513 0.350985L46.2245 7.61594C47.2068 7.98428 48.0642 8.62419 48.6968 9.46111C49.3294 10.298 49.7111 11.2975 49.7975 12.343L49.8168 12.7997V27.6423C49.8167 32.127 48.6058 36.5285 46.312 40.3821C44.0181 44.2358 40.7263 47.3986 36.7842 49.5368L36.048 49.9215L26.7655 54.5628C26.2544 54.818 25.6961 54.9649 25.1256 54.9945C24.5551 55.024 23.9846 54.9354 23.4499 54.7344L23.0514 54.5628L13.7688 49.9215C9.75749 47.9158 6.3621 44.8643 3.94108 41.089C1.52006 37.3138 0.163235 32.9549 0.0138383 28.4726L0 27.6423V12.7997C1.60937e-05 11.7511 0.297868 10.7241 0.85888 9.83825C1.41989 8.95238 2.22099 8.2441 3.1689 7.79584L3.59235 7.61594L22.9656 0.350985ZM28.4197 6.85142C26.1558 6.00247 23.661 6.00247 21.3972 6.85142L12.024 10.3664C8.12093 11.83 5.5352 15.5612 5.5352 19.7297V27.6423C5.53527 31.1157 6.46914 34.5251 8.23903 37.5137C10.0089 40.5023 12.5497 42.9602 15.5954 44.6299L16.2458 44.9703L20.4363 47.0655C23.2516 48.4731 26.5653 48.4731 29.3806 47.0655L33.571 44.9703C36.6783 43.4169 39.3107 41.0567 41.1926 38.1367C43.0745 35.2167 44.1367 31.8444 44.2678 28.373L44.2816 27.6423V19.7297C44.2816 15.5612 41.6959 11.83 37.7929 10.3664L28.4197 6.85142ZM34.4096 18.1577C34.9076 17.6614 35.576 17.3732 36.2788 17.3517C36.9816 17.3303 37.6663 17.5771 38.1937 18.0422C38.7211 18.5072 39.0517 19.1556 39.1184 19.8556C39.1851 20.5556 38.9828 21.2547 38.5527 21.811L38.323 22.0711L23.8374 36.5595C23.3097 37.0871 22.6067 37.4025 21.8618 37.4459C21.1169 37.4893 20.382 37.2576 19.7967 36.7948L19.531 36.5595L12.8777 29.9062C12.376 29.4093 12.0833 28.7395 12.0593 28.0338C12.0354 27.3281 12.2821 26.64 12.7489 26.1102C13.2157 25.5805 13.8673 25.2492 14.5704 25.1841C15.2735 25.1191 15.9748 25.3252 16.5309 25.7603L16.791 25.99C19.4934 28.6924 23.8749 28.6924 26.5773 25.99L34.4096 18.1577Z" fill="white"/>
</svg>
