<svg width="82" height="82" viewBox="0 0 82 82" fill="none" xmlns="http://www.w3.org/2000/svg">
<path d="M40.8599 0.000252193C18.2178 0.0788351 -0.0783307 18.5014 0.000252193 41.1435C0.078835 63.7856 18.5014 82.0749 41.1401 81.9998C63.7822 81.9212 82.0783 63.502 81.9998 40.8599C81.9212 18.2178 63.502 -0.0783307 40.8599 0.000252193ZM41 7.29138C45.4284 7.27949 49.8151 8.14607 53.9063 9.84097C57.9975 11.5359 61.7119 14.0254 64.8345 17.1655C67.9748 20.288 70.4644 24.0023 72.1593 28.0936C73.8542 32.1848 74.7207 36.5716 74.7086 41C74.7207 45.4284 73.8542 49.8152 72.1593 53.9065C70.4644 57.9977 67.9748 61.7121 64.8345 64.8345C61.7119 67.9746 57.9975 70.4642 53.9063 72.1591C49.8151 73.854 45.4284 74.7205 41 74.7086C36.5717 74.7203 32.185 73.8537 28.0938 72.1588C24.0026 70.4639 20.2882 67.9745 17.1655 64.8345C14.0252 61.7121 11.5356 57.9977 9.8407 53.9065C8.1458 49.8152 7.2793 45.4284 7.29137 41C7.2793 36.5716 8.1458 32.1848 9.8407 28.0936C11.5356 24.0023 14.0252 20.288 17.1655 17.1655C20.2882 14.0256 24.0026 11.5361 28.0938 9.84123C32.185 8.14635 36.5717 7.27968 41 7.29138ZM41.3895 11.3709C38.47 11.3685 35.5658 11.7932 32.7693 12.6316C32.5407 12.6913 32.3298 12.8049 32.1543 12.963C32.0219 13.089 31.9404 13.2592 31.9254 13.4413C31.9015 13.7864 32.1099 14.1144 32.414 14.3741C35.0687 16.6462 38.6323 20.0491 41.1503 24.2687C39.7393 24.296 38.6254 23.517 37.6654 22.5945C34.7217 19.8282 31.4464 17.4377 27.9142 15.4777C27.4052 15.1941 26.8551 15.0608 26.3187 15.3683C23.3968 17.0027 20.7993 19.159 18.6551 21.7301C18.4228 22 18.3647 22.2802 18.4501 22.516C18.5512 22.7434 18.7324 22.9258 18.9592 23.0284C21.59 24.4293 25.7037 27.0738 29.503 30.4972C29.1291 30.7329 28.6799 30.8184 28.2457 30.7364C27.6375 30.6476 26.8893 30.364 25.9941 29.8959C23.0174 28.3596 19.8724 27.1741 16.6222 26.3631C16.0312 26.2093 15.3717 26.3802 15.0506 26.9303C13.414 29.7763 12.2831 33.1759 11.7535 36.6233C11.7025 36.9732 11.7915 37.3292 12.0013 37.6138C12.2111 37.8985 12.5248 38.0889 12.8742 38.1437C15.8296 38.663 19.933 39.6129 23.5102 41.9464C27.084 44.2732 30.1317 47.97 31.0029 54.0174C31.039 54.2384 31.0157 54.465 30.9352 54.674C30.8548 54.883 30.7201 55.0668 30.5451 55.2064C30.2068 55.4661 29.7114 55.5481 29.1101 55.2679L23.7733 52.7635C23.5661 52.6593 23.3388 52.6011 23.107 52.5927H14.7123C14.07 52.5927 13.5848 52.907 13.3867 53.358C13.1885 53.809 13.2773 54.383 13.6942 54.8613C15.71 57.1778 17.555 59.6788 19.1335 62.3301C19.2019 62.4539 19.3032 62.5564 19.4262 62.6264C19.5492 62.6963 19.6891 62.7309 19.8305 62.7265H23.4965C23.7612 62.7288 24.0213 62.6578 24.2482 62.5215L27.7058 60.4988C27.8835 60.3895 28.0577 60.3929 28.3106 60.3929H55.9307C56.0845 60.3929 56.2177 60.4407 56.31 60.5227C56.3579 60.564 56.396 60.6155 56.4214 60.6735C56.4469 60.7314 56.459 60.7943 56.4569 60.8576V62.2174C56.4569 62.7982 56.9831 63.2424 57.5536 63.1535C60.9792 62.6058 64.1617 61.0431 66.6898 58.6675C66.798 58.5665 66.8843 58.4443 66.9433 58.3085C67.0023 58.1727 67.0327 58.0263 67.0327 57.8782C67.0327 57.7302 67.0023 57.5838 66.9433 57.448C66.8843 57.3122 66.798 57.19 66.6898 57.089C64.163 54.7135 60.9816 53.1507 57.5571 52.6029C57.4213 52.5818 57.2826 52.5902 57.1503 52.6276C57.0181 52.6651 56.8956 52.7307 56.7911 52.8199C56.6866 52.9092 56.6026 53.0199 56.5449 53.1447C56.4873 53.2694 56.4572 53.4051 56.4569 53.5425V54.7862C56.4525 54.9471 56.3975 55.1025 56.2997 55.2303C56.2041 55.3533 56.0811 55.4285 55.9478 55.4285C55.6779 55.4285 55.4114 55.4353 55.1449 55.4285C54.7247 55.4217 54.506 55.1825 54.3796 54.8374C54.2627 54.4804 54.2509 54.0974 54.3454 53.7339C56.3817 46.4291 56.8806 41.9874 56.8567 38.7519C56.8327 35.325 56.7439 31.8844 55.1962 27.3505C53.7099 23.0045 52.3262 18.7064 45.1273 12.184C44.657 11.7431 44.0457 11.4829 43.4019 11.4494C42.7323 11.3996 42.061 11.3711 41.3895 11.3709ZM46.6101 44.526C47.6078 44.5679 48.5506 44.9938 49.2417 45.7145C49.9327 46.4352 50.3186 47.3951 50.3186 48.3936C50.3186 49.3921 49.9327 50.352 49.2417 51.0728C48.5506 51.7935 47.6078 52.2193 46.6101 52.2613C45.5844 52.2613 44.6006 51.8538 43.8753 51.1285C43.15 50.4031 42.7425 49.4194 42.7425 48.3936C42.7425 47.3679 43.15 46.3841 43.8753 45.6588C44.6006 44.9335 45.5844 44.526 46.6101 44.526Z" fill="#BDBDBD"/>
</svg>
