<svg width="68" height="55" viewBox="0 0 68 55" fill="none" xmlns="http://www.w3.org/2000/svg">
<path d="M30.3264 33.7639L47.6667 16.5L43.3125 12.1458L30.3264 25.1319L23.8333 18.6389L19.5556 22.9167L30.3264 33.7639ZM0 55V48.8889H67.2222V55H0ZM9.16667 45.8333C7.48611 45.8333 6.04796 45.2355 4.85222 44.0397C3.65444 42.8419 3.05556 41.4028 3.05556 39.7222V6.11111C3.05556 4.43056 3.65444 2.99139 4.85222 1.79361C6.04796 0.59787 7.48611 0 9.16667 0H58.0556C59.7361 0 61.1753 0.59787 62.3731 1.79361C63.5688 2.99139 64.1667 4.43056 64.1667 6.11111V39.7222C64.1667 41.4028 63.5688 42.8419 62.3731 44.0397C61.1753 45.2355 59.7361 45.8333 58.0556 45.8333H9.16667ZM9.16667 39.7222H58.0556V6.11111H9.16667V39.7222Z" fill="white"/>
</svg>
