<svg width="512" height="342" viewBox="0 0 512 342" fill="none" xmlns="http://www.w3.org/2000/svg">
<path d="M256 0C114.608 0 0 76.559 0 171C0 265.441 114.608 342 256 342C397.382 342 512 265.441 512 171C512 76.559 397.382 0 256 0ZM384.494 66.958C392.035 72.531 392.014 83.646 384.453 89.209C374.141 96.78 355.968 105.773 330.832 112.325C330.348 110.574 329.843 108.833 329.307 107.123C317.985 70.358 297.011 43.235 271.967 35.035C328.453 37.723 367.373 54.287 384.494 66.958ZM211.991 156.259C226.125 157.866 240.888 158.721 256 158.721C271.112 158.721 285.865 157.866 299.999 156.259C300.308 160.678 300.473 165.231 300.473 169.898C300.473 229.861 273.699 269.645 256 269.645C238.291 269.645 211.517 229.862 211.517 169.898C211.517 165.231 211.682 160.678 211.991 156.259ZM293.437 119.247C281.847 120.607 269.351 121.379 256 121.379C251.611 121.379 247.316 121.297 243.123 121.132C243.082 121.132 243.051 121.132 243.02 121.122C234.459 120.803 226.31 120.154 218.553 119.247C227.701 88.57 243.947 70.141 256 70.141C268.043 70.141 284.289 88.57 293.437 119.247ZM127.536 66.834C140.753 57.13 166.899 45.078 204.048 38.846C204.676 38.743 205.325 38.63 205.974 38.527C216.482 36.838 227.845 35.612 240.032 35.035C213.814 43.616 192.067 72.923 181.167 112.315C155.989 105.743 137.796 96.709 127.495 89.086C119.954 83.502 119.975 72.387 127.536 66.834ZM271.504 309.18C270.639 309.231 269.773 309.262 268.908 309.293H268.877C264.612 309.468 260.316 309.551 256 309.551C137.787 309.551 37.921 246.106 37.921 171C37.921 142.002 52.797 114.755 77.871 92.227C86.782 117.115 124.064 138.562 174.461 149.965C173.884 156.475 173.596 163.13 173.596 169.898C173.596 245.808 210.487 307.347 256 307.347C301.503 307.347 338.394 245.808 338.394 169.898C338.394 163.13 338.106 156.475 337.529 149.965C387.925 138.562 425.208 117.115 434.119 92.227C459.183 114.756 474.069 142.002 474.069 171C474.069 242.799 382.805 303.937 271.504 309.18ZM329.308 107.122C329.772 108.873 330.276 110.614 330.833 112.324C330.348 110.573 329.843 108.832 329.308 107.122Z" fill="#CCCCCC"/>
</svg>
