<svg width="124" height="82" viewBox="0 0 124 82" fill="none" xmlns="http://www.w3.org/2000/svg">
<path d="M62 0C26.9855 0 0 17.3516 0 41C0 64.6484 26.9907 82 62 82C97.0093 82 124 64.6484 124 41C124 17.3516 97.0145 0 62 0ZM99.8923 19.308C99.8923 24.7398 90.9798 28.9293 76.7043 30.6041C75.361 17.6282 71.5118 9.08317 66.5622 5.8945C81.7935 6.81992 99.8923 12.0656 99.8923 19.308ZM62 63.1346C57.04 63.1346 52.979 55.5904 52.6587 41.0603C55.6398 41.2967 58.7553 41.4225 62 41.4225C65.2447 41.4225 68.355 41.2967 71.3362 41.0603C71.021 55.5954 66.96 63.1346 62 63.1346ZM62 31.4089C58.9517 31.4089 56.0325 31.3133 53.2683 31.1373C54.6168 22.4464 58.0217 15.2945 62 15.2945C65.9783 15.2945 69.378 22.4464 70.7265 31.1373C67.9623 31.3083 65.0483 31.4089 62 31.4089ZM57.443 5.88445C52.5037 9.06808 48.6287 17.6181 47.2957 30.6041C33.0202 28.9293 24.1025 24.7398 24.1025 19.308C24.1025 12.0656 42.2065 6.78472 57.443 5.88445ZM10.5245 39.3906C10.5115 33.6554 12.4116 28.071 15.9392 23.4774C17.3342 31.258 28.9695 37.9672 46.7945 40.4266V41C46.7945 59.9711 51.336 72.1976 57.5773 76.0552C31.1912 74.4407 10.5245 58.5527 10.5245 39.3906ZM66.4433 76.0552C72.6795 72.1976 77.2262 59.9711 77.2262 41V40.4216C95.0357 37.9672 106.697 31.2379 108.081 23.4724C111.614 28.0659 113.516 33.6528 113.501 39.3906C113.481 58.5527 92.7985 74.4407 66.4433 76.0552Z" fill="#BDBDBD"/>
</svg>
