<svg width="88" height="88" viewBox="0 0 88 88" fill="none" xmlns="http://www.w3.org/2000/svg">
<path d="M44 85C54.8739 85 65.3024 80.6804 72.9914 72.9914C80.6804 65.3024 85 54.8739 85 44C85 33.1261 80.6804 22.6976 72.9914 15.0086C65.3024 7.31963 54.8739 3 44 3C33.1261 3 22.6976 7.31963 15.0086 15.0086C7.31963 22.6976 3 33.1261 3 44C3 54.8739 7.31963 65.3024 15.0086 72.9914C22.6976 80.6804 33.1261 85 44 85Z" stroke="#BDBDBD" stroke-width="5" stroke-linecap="round" stroke-linejoin="round"/>
<path d="M12.1111 21.2222L32.6111 71.3333L39.4444 48.5555H48.5555L55.3888 71.3333L75.8888 21.2222" stroke="#BDBDBD" stroke-width="5" stroke-linecap="round" stroke-linejoin="round"/>
<path d="M30.3333 7.55554L39.4445 34.8889H48.5556L57.6667 7.55554" stroke="#BDBDBD" stroke-width="5" stroke-linecap="round" stroke-linejoin="round"/>
</svg>
